<mxfile host="app.diagrams.net" agent="Mozilla/5.0 (Windows NT 10.0; Win64; x64) AppleWebKit/537.36 (KHTML, like Gecko) Chrome/133.0.0.0 Safari/537.36" version="26.0.16">
  <diagram name="Trang-1" id="tYtuuxOW4ndSvOgHWJig">
    <mxGraphModel dx="1050" dy="557" grid="1" gridSize="10" guides="1" tooltips="1" connect="1" arrows="1" fold="1" page="1" pageScale="1" pageWidth="827" pageHeight="1169" math="0" shadow="0">
      <root>
        <mxCell id="0" />
        <mxCell id="1" parent="0" />
        <mxCell id="v4Rt921csqqIU_acYup9-8" style="edgeStyle=orthogonalEdgeStyle;rounded=0;orthogonalLoop=1;jettySize=auto;html=1;entryX=0;entryY=0.5;entryDx=0;entryDy=0;" edge="1" parent="1" source="v4Rt921csqqIU_acYup9-1" target="v4Rt921csqqIU_acYup9-3">
          <mxGeometry relative="1" as="geometry" />
        </mxCell>
        <mxCell id="v4Rt921csqqIU_acYup9-9" style="edgeStyle=orthogonalEdgeStyle;rounded=0;orthogonalLoop=1;jettySize=auto;html=1;entryX=0;entryY=0.5;entryDx=0;entryDy=0;" edge="1" parent="1" source="v4Rt921csqqIU_acYup9-1" target="v4Rt921csqqIU_acYup9-4">
          <mxGeometry relative="1" as="geometry" />
        </mxCell>
        <mxCell id="v4Rt921csqqIU_acYup9-10" style="edgeStyle=orthogonalEdgeStyle;rounded=0;orthogonalLoop=1;jettySize=auto;html=1;entryX=0;entryY=0.5;entryDx=0;entryDy=0;" edge="1" parent="1" source="v4Rt921csqqIU_acYup9-1" target="v4Rt921csqqIU_acYup9-5">
          <mxGeometry relative="1" as="geometry" />
        </mxCell>
        <mxCell id="v4Rt921csqqIU_acYup9-1" value="Admin" style="shape=umlActor;verticalLabelPosition=bottom;verticalAlign=top;html=1;outlineConnect=0;" vertex="1" parent="1">
          <mxGeometry x="70" y="210" width="30" height="60" as="geometry" />
        </mxCell>
        <mxCell id="v4Rt921csqqIU_acYup9-11" style="edgeStyle=orthogonalEdgeStyle;rounded=0;orthogonalLoop=1;jettySize=auto;html=1;" edge="1" parent="1" source="v4Rt921csqqIU_acYup9-2" target="v4Rt921csqqIU_acYup9-7">
          <mxGeometry relative="1" as="geometry" />
        </mxCell>
        <mxCell id="v4Rt921csqqIU_acYup9-2" value="Sinh Viên" style="shape=umlActor;verticalLabelPosition=bottom;verticalAlign=top;html=1;outlineConnect=0;" vertex="1" parent="1">
          <mxGeometry x="720" y="140" width="30" height="60" as="geometry" />
        </mxCell>
        <mxCell id="v4Rt921csqqIU_acYup9-3" value="Thêm tài khoản" style="ellipse;whiteSpace=wrap;html=1;" vertex="1" parent="1">
          <mxGeometry x="200" y="100" width="110" height="50" as="geometry" />
        </mxCell>
        <mxCell id="v4Rt921csqqIU_acYup9-4" value="chỉnh sửa tài khoản" style="ellipse;whiteSpace=wrap;html=1;" vertex="1" parent="1">
          <mxGeometry x="210" y="215" width="110" height="50" as="geometry" />
        </mxCell>
        <mxCell id="v4Rt921csqqIU_acYup9-5" value="xóa tài khoản" style="ellipse;whiteSpace=wrap;html=1;" vertex="1" parent="1">
          <mxGeometry x="200" y="350" width="110" height="50" as="geometry" />
        </mxCell>
        <mxCell id="v4Rt921csqqIU_acYup9-7" value="Đăng kí tài khoản" style="ellipse;whiteSpace=wrap;html=1;" vertex="1" parent="1">
          <mxGeometry x="520" y="215" width="110" height="50" as="geometry" />
        </mxCell>
        <mxCell id="v4Rt921csqqIU_acYup9-14" value="" style="edgeStyle=orthogonalEdgeStyle;rounded=0;orthogonalLoop=1;jettySize=auto;html=1;" edge="1" parent="1" source="v4Rt921csqqIU_acYup9-13" target="v4Rt921csqqIU_acYup9-7">
          <mxGeometry relative="1" as="geometry" />
        </mxCell>
        <mxCell id="v4Rt921csqqIU_acYup9-15" style="edgeStyle=orthogonalEdgeStyle;rounded=0;orthogonalLoop=1;jettySize=auto;html=1;entryX=1;entryY=0.5;entryDx=0;entryDy=0;" edge="1" parent="1" source="v4Rt921csqqIU_acYup9-13" target="v4Rt921csqqIU_acYup9-4">
          <mxGeometry relative="1" as="geometry" />
        </mxCell>
        <mxCell id="v4Rt921csqqIU_acYup9-16" style="edgeStyle=orthogonalEdgeStyle;rounded=0;orthogonalLoop=1;jettySize=auto;html=1;entryX=1;entryY=0.5;entryDx=0;entryDy=0;" edge="1" parent="1" source="v4Rt921csqqIU_acYup9-13" target="v4Rt921csqqIU_acYup9-3">
          <mxGeometry relative="1" as="geometry" />
        </mxCell>
        <mxCell id="v4Rt921csqqIU_acYup9-17" style="edgeStyle=orthogonalEdgeStyle;rounded=0;orthogonalLoop=1;jettySize=auto;html=1;entryX=1;entryY=0.5;entryDx=0;entryDy=0;" edge="1" parent="1" source="v4Rt921csqqIU_acYup9-13" target="v4Rt921csqqIU_acYup9-5">
          <mxGeometry relative="1" as="geometry" />
        </mxCell>
        <mxCell id="v4Rt921csqqIU_acYup9-13" value="lưu vào Data base" style="ellipse;whiteSpace=wrap;html=1;" vertex="1" parent="1">
          <mxGeometry x="380" y="215" width="110" height="50" as="geometry" />
        </mxCell>
        <mxCell id="v4Rt921csqqIU_acYup9-27" style="edgeStyle=orthogonalEdgeStyle;rounded=0;orthogonalLoop=1;jettySize=auto;html=1;entryX=1;entryY=0.5;entryDx=0;entryDy=0;" edge="1" parent="1" source="v4Rt921csqqIU_acYup9-18" target="v4Rt921csqqIU_acYup9-7">
          <mxGeometry relative="1" as="geometry" />
        </mxCell>
        <mxCell id="v4Rt921csqqIU_acYup9-18" value="Giảng Viên" style="shape=umlActor;verticalLabelPosition=bottom;verticalAlign=top;html=1;outlineConnect=0;" vertex="1" parent="1">
          <mxGeometry x="710" y="290" width="30" height="60" as="geometry" />
        </mxCell>
      </root>
    </mxGraphModel>
  </diagram>
</mxfile>
